<?xml version="1.0" encoding="UTF-8" standalone="no"?>
<!-- Created with Inkscape (http://www.inkscape.org/) -->

<svg
   width="210mm"
   height="297mm"
   viewBox="0 0 210 297"
   version="1.1"
   id="svg5"
   inkscape:version="1.2.1 (9c6d41e, 2022-07-14)"
   sodipodi:docname="car-collector.svg"
   xmlns:inkscape="http://www.inkscape.org/namespaces/inkscape"
   xmlns:sodipodi="http://sodipodi.sourceforge.net/DTD/sodipodi-0.dtd"
   xmlns="http://www.w3.org/2000/svg"
   xmlns:svg="http://www.w3.org/2000/svg">
  <sodipodi:namedview
     id="namedview7"
     pagecolor="#ffffff"
     bordercolor="#999999"
     borderopacity="1"
     inkscape:showpageshadow="0"
     inkscape:pageopacity="0"
     inkscape:pagecheckerboard="0"
     inkscape:deskcolor="#d1d1d1"
     inkscape:document-units="mm"
     showgrid="false"
     inkscape:zoom="0.914906"
     inkscape:cx="225.70625"
     inkscape:cy="561.25984"
     inkscape:window-width="1390"
     inkscape:window-height="1205"
     inkscape:window-x="0"
     inkscape:window-y="25"
     inkscape:window-maximized="0"
     inkscape:current-layer="layer1" />
  <defs
     id="defs2">
    <rect
       x="383.64597"
       y="162.85826"
       width="338.83262"
       height="42.62733"
       id="rect181" />
    <rect
       x="232.8108"
       y="142.0911"
       width="151.92818"
       height="15.302118"
       id="rect173" />
    <rect
       x="126.78898"
       y="118.04491"
       width="415.34321"
       height="71.04555"
       id="rect113" />
  </defs>
  <g
     inkscape:label="Layer 1"
     inkscape:groupmode="layer"
     id="layer1">
    <text
       xml:space="preserve"
       transform="scale(0.26458333)"
       id="text111"
       style="fill:#000000;white-space:pre;shape-inside:url(#rect113)" />
    <g
       aria-label="Car Collector"
       id="text119"
       style="font-size:16.9333px;stroke-width:0.264583">
      <path
         d="m 43.418363,36.213032 q -0.169333,2.827862 -2.810928,2.827862 h -2.827861 q -1.151464,0 -1.998129,-0.829732 -0.829732,-0.829732 -0.829732,-1.99813 V 29.16878 q 0,-1.151465 0.812799,-1.981196 0.829731,-0.846665 2.015062,-0.846665 h 2.827861 q 2.658529,0 2.810928,2.827861 h -1.405464 q -0.169333,-1.422398 -1.405464,-1.422398 h -1.422397 q -0.575732,0 -0.999064,0.423333 -0.4064,0.406399 -0.4064,0.999065 v 7.044252 q 0,0.575733 0.4064,0.999065 0.423332,0.423333 0.999064,0.423333 h 1.422397 q 1.253065,0 1.405464,-1.422398 z"
         style="font-family:Silom;-inkscape-font-specification:Silom"
         id="path185" />
      <path
         d="m 51.901943,33.402105 v -1.422398 q 0,-0.575732 -0.423332,-0.982131 -0.406399,-0.423332 -0.999065,-0.423332 h -1.405464 q -1.253064,0 -1.405464,1.405463 h -1.422397 q 0.338666,-2.810927 2.827861,-2.810927 h 2.827861 q 1.151465,0 1.981197,0.829731 0.829731,0.829732 0.829731,1.981196 v 7.061187 H 51.901943 V 37.63543 q -0.169333,1.405464 -1.422397,1.405464 h -1.405464 q -1.151464,0 -1.998129,-0.829732 -0.829732,-0.829732 -0.829732,-1.99813 v 0 q 0,-1.151464 0.829732,-1.981196 0.846665,-0.829731 1.998129,-0.829731 z m 0,1.405464 h -1.422397 q -0.575732,0 -0.999064,0.423332 -0.4064,0.406399 -0.4064,0.982131 v 0 q 0,0.575733 0.4064,0.999065 0.423332,0.423333 0.999064,0.423333 0.592666,0 0.999065,-0.423333 0.423332,-0.423332 0.423332,-0.999065 z"
         style="font-family:Silom;-inkscape-font-specification:Silom"
         id="path187" />
      <path
         d="M 60.36859,39.040894 H 57.540729 V 29.16878 h 2.827861 v 2.810927 q 0.169333,-1.405463 0.863599,-2.099729 0.711198,-0.711198 1.964262,-0.711198 h 1.405464 v 2.810927 h -2.827861 q -0.575732,0 -0.999064,0.423333 -0.4064,0.406399 -0.4064,0.999065 z"
         style="font-family:Silom;-inkscape-font-specification:Silom"
         id="path189" />
      <path
         d="m 78.707288,36.213032 q -0.169333,2.827862 -2.810927,2.827862 H 73.0685 q -1.151465,0 -1.99813,-0.829732 -0.829732,-0.829732 -0.829732,-1.99813 V 29.16878 q 0,-1.151465 0.812799,-1.981196 0.829732,-0.846665 2.015063,-0.846665 h 2.827861 q 2.658528,0 2.810927,2.827861 h -1.405463 q -0.169333,-1.422398 -1.405464,-1.422398 h -1.422398 q -0.575732,0 -0.999064,0.423333 Q 73.0685,28.576114 73.0685,29.16878 v 7.044252 q 0,0.575733 0.406399,0.999065 0.423332,0.423333 0.999064,0.423333 h 1.422398 q 1.253064,0 1.405464,-1.422398 z"
         style="font-family:Silom;-inkscape-font-specification:Silom"
         id="path191" />
      <path
         d="m 84.363009,29.16878 h 2.827862 q 1.151464,0 1.981196,0.829731 0.829731,0.829732 0.829731,1.981196 v 4.233325 q 0,1.151465 -0.829731,1.99813 -0.829732,0.829732 -1.981196,0.829732 h -2.827862 q -1.151464,0 -1.998129,-0.829732 -0.829732,-0.829732 -0.829732,-1.99813 v -4.233325 q 0,-1.151464 0.829732,-1.981196 0.846665,-0.829731 1.998129,-0.829731 z m 0,2.810927 v 4.233325 q 0,0.575733 0.4064,0.999065 0.423332,0.423333 0.999064,0.423333 0.592666,0 0.999065,-0.423333 0.423333,-0.423332 0.423333,-0.999065 v -4.233325 q 0,-0.575732 -0.423333,-0.982131 -0.406399,-0.423332 -0.999065,-0.423332 -0.575732,0 -0.999064,0.423332 -0.4064,0.406399 -0.4064,0.982131 z"
         style="font-family:Silom;-inkscape-font-specification:Silom"
         id="path193" />
      <path
         d="M 92.829654,39.040894 V 26.340919 h 2.827862 v 12.699975 z"
         style="font-family:Silom;-inkscape-font-specification:Silom"
         id="path195" />
      <path
         d="M 98.468414,39.040894 V 26.340919 h 2.827866 v 12.699975 z"
         style="font-family:Silom;-inkscape-font-specification:Silom"
         id="path197" />
      <path
         d="m 112.57383,34.807569 h -5.63879 v 1.405463 q 0,0.575733 0.4064,0.999065 0.42333,0.423333 0.99906,0.423333 h 1.4224 q 1.40546,0 1.40546,-1.422398 h 1.40547 q -0.32174,2.827862 -2.81093,2.827862 h -2.82786 q -1.15147,0 -1.99813,-0.829732 -0.82973,-0.829732 -0.82973,-1.99813 v -4.233325 q 0,-1.151464 0.82973,-1.981196 0.84666,-0.829731 1.99813,-0.829731 h 2.82786 q 1.15146,0 1.9812,0.829731 0.82973,0.829732 0.82973,1.981196 z m -5.63879,-1.405464 h 2.82786 v -1.422398 q 0,-0.575732 -0.42333,-0.982131 -0.4064,-0.423332 -0.99907,-0.423332 -0.57573,0 -0.99906,0.423332 -0.4064,0.406399 -0.4064,0.982131 z"
         style="font-family:Silom;-inkscape-font-specification:Silom"
         id="path199" />
      <path
         d="m 122.46287,31.979707 h -1.40547 q -0.16933,-1.405463 -1.4224,-1.405463 -0.57573,0 -0.99906,0.423332 -0.4064,0.406399 -0.4064,0.982131 v 4.233325 q 0,0.575733 0.4064,0.999065 0.42333,0.423333 0.99906,0.423333 1.25307,0 1.4224,-1.422398 h 1.40547 q -0.16934,2.827862 -2.82787,2.827862 h -1.40546 q -1.15146,0 -1.99813,-0.829732 -0.82973,-0.829732 -0.82973,-1.99813 v -4.233325 q 0,-1.151464 0.82973,-1.981196 0.84667,-0.829731 1.99813,-0.829731 h 1.40546 q 2.67547,0 2.82787,2.810927 z"
         style="font-family:Silom;-inkscape-font-specification:Silom"
         id="path201" />
      <path
         d="m 126.69616,26.340919 h 2.81093 v 2.827861 h 1.4224 v 1.405464 h -1.4224 v 5.638788 q 0,0.694266 0.4572,1.066798 0.4572,0.3556 0.82973,0.3556 h 0.13547 v 1.405464 h -1.4224 q -1.15146,0 -1.9812,-0.829732 -0.82973,-0.829732 -0.82973,-1.99813 v -5.638788 h -1.42239 V 29.16878 h 1.42239 z"
         style="font-family:Silom;-inkscape-font-specification:Silom"
         id="path203" />
      <path
         d="m 136.56825,29.16878 h 2.82786 q 1.15146,0 1.9812,0.829731 0.82973,0.829732 0.82973,1.981196 v 4.233325 q 0,1.151465 -0.82973,1.99813 -0.82974,0.829732 -1.9812,0.829732 h -2.82786 q -1.15147,0 -1.99813,-0.829732 -0.82973,-0.829732 -0.82973,-1.99813 v -4.233325 q 0,-1.151464 0.82973,-1.981196 0.84666,-0.829731 1.99813,-0.829731 z m 0,2.810927 v 4.233325 q 0,0.575733 0.4064,0.999065 0.42333,0.423333 0.99906,0.423333 0.59267,0 0.99907,-0.423333 0.42333,-0.423332 0.42333,-0.999065 v -4.233325 q 0,-0.575732 -0.42333,-0.982131 -0.4064,-0.423332 -0.99907,-0.423332 -0.57573,0 -0.99906,0.423332 -0.4064,0.406399 -0.4064,0.982131 z"
         style="font-family:Silom;-inkscape-font-specification:Silom"
         id="path205" />
      <path
         d="m 147.86275,39.040894 h -2.82786 V 29.16878 h 2.82786 v 2.810927 q 0.16933,-1.405463 0.8636,-2.099729 0.7112,-0.711198 1.96426,-0.711198 h 1.40547 v 2.810927 h -2.82787 q -0.57573,0 -0.99906,0.423333 -0.4064,0.406399 -0.4064,0.999065 z"
         style="font-family:Silom;-inkscape-font-specification:Silom"
         id="path207" />
    </g>
    <text
       xml:space="preserve"
       transform="scale(0.26458333)"
       id="text171"
       style="fill:#000000;white-space:pre;shape-inside:url(#rect173)" />
    <text
       xml:space="preserve"
       transform="scale(0.26458333)"
       id="text179"
       style="fill:#000000;-inkscape-font-specification:AppleMyungjo;font-family:AppleMyungjo;font-weight:normal;font-style:normal;font-stretch:normal;font-variant:normal;font-size:32px;white-space:pre;shape-inside:url(#rect181)" />
  </g>
</svg>
